<svg width="32" height="32" viewBox="0 0 32 32" fill="none" xmlns="http://www.w3.org/2000/svg">
<path fill-rule="evenodd" clip-rule="evenodd" d="M16 5.33325C16.7364 5.33325 17.3333 5.93021 17.3333 6.66659V11.9999C17.3333 12.7363 16.7364 13.3333 16 13.3333C15.2636 13.3333 14.6666 12.7363 14.6666 11.9999V6.66659C14.6666 5.93021 15.2636 5.33325 16 5.33325Z" fill="#2859C5"/>
<path d="M16 1.33325C14.159 1.33325 12.6666 2.82564 12.6666 4.66658C12.6666 6.50753 14.159 7.99992 16 7.99992C17.8409 7.99992 19.3333 6.50753 19.3333 4.66658C19.3333 2.82564 17.8409 1.33325 16 1.33325Z" fill="#2859C5"/>
<path d="M16 30.9999C19.9459 30.9999 22.7913 30.8923 24.6712 30.782C26.8369 30.6549 28.5897 29.0434 28.7737 26.8356C28.8952 25.3774 29 23.3439 29 20.6666C29 17.9893 28.8952 15.9558 28.7737 14.4976C28.5897 12.2898 26.8369 10.6783 24.6712 10.5512C22.7913 10.4409 19.9459 10.3333 16 10.3333C12.0541 10.3333 9.20873 10.4409 7.32873 10.5512C5.16311 10.6783 3.41027 12.2898 3.22629 14.4976C3.10476 15.9558 3 17.9893 3 20.6666C3 23.3439 3.10477 25.3774 3.22629 26.8356C3.41027 29.0434 5.16311 30.6549 7.3288 30.782C9.20873 30.8923 12.0541 30.9999 16 30.9999Z" fill="#8FBFFA"/>
<path fill-rule="evenodd" clip-rule="evenodd" d="M12.6667 17.3333C12.6667 16.5969 12.0697 16 11.3333 16C10.5969 16 10 16.5969 10 17.3333V18C10 18.7364 10.5969 19.3333 11.3333 19.3333C12.0697 19.3333 12.6667 18.7364 12.6667 18V17.3333ZM20.6667 16C19.9303 16 19.3333 16.5969 19.3333 17.3333V18C19.3333 18.7364 19.9303 19.3333 20.6667 19.3333C21.4031 19.3333 22 18.7364 22 18V17.3333C22 16.5969 21.4031 16 20.6667 16ZM11.0853 23.0299C11.7291 22.4229 12.4618 22.6923 13.0579 23.1559C13.1583 23.2339 13.3295 23.3533 13.5746 23.4775C14.0591 23.7233 14.8536 24 16 24C17.1464 24 17.9409 23.7233 18.4254 23.4775C18.6705 23.3533 18.8417 23.2339 18.9421 23.1559C19.5382 22.6923 20.2709 22.4229 20.9147 23.0299C21.4689 23.5524 21.4515 24.4402 20.9227 24.9631C20.9013 24.9842 20.8745 25.0099 20.8421 25.0397C20.7773 25.0992 20.6899 25.1748 20.5793 25.2608C20.3583 25.4327 20.0438 25.6467 19.6317 25.8558C18.8019 26.2767 17.5965 26.6667 16 26.6667C14.4035 26.6667 13.1981 26.2767 12.3683 25.8558C11.9562 25.6467 11.6417 25.4327 11.4207 25.2608C11.3101 25.1748 11.2227 25.0992 11.1579 25.0397C10.5901 24.5187 10.4788 23.6017 11.0853 23.0299Z" fill="#2859C5"/>
</svg>
