<svg width="233" height="40" viewBox="0 0 233 40" fill="none" xmlns="http://www.w3.org/2000/svg">
<g clip-path="url(#clip0_6_16)">
<path fill-rule="evenodd" clip-rule="evenodd" d="M19.87 0C30.81 0 39.73 8.93 39.73 19.86C39.73 30.79 30.8 39.73 19.87 39.73C8.94 39.73 0 30.8 0 19.86C0 8.92 8.92 0 19.87 0Z" fill="#939598"/>
<path fill-rule="evenodd" clip-rule="evenodd" d="M19.87 0.75C30.4 0.75 38.99 9.34 38.99 19.87C38.99 30.4 30.4 38.99 19.87 38.99C9.34 38.99 0.75 30.4 0.75 19.86C0.75 9.32 9.33 0.75 19.87 0.75Z" fill="white"/>
<path fill-rule="evenodd" clip-rule="evenodd" d="M36.53 22.07L37.45 22.36C37.45 22.36 37.51 22.41 37.5 22.46L37.05 24.41C37.04 24.47 36.99 24.5 36.93 24.48C36.86 24.46 36.83 24.42 36.85 24.36C36.88 24.25 36.88 24.17 36.85 24.15C36.83 24.13 36.75 24.1 36.63 24.07L34.56 23.59C34.48 23.57 34.43 23.59 34.4 23.61C34.38 23.63 34.36 23.69 34.34 23.78C34.33 23.84 34.28 23.87 34.21 23.85C34.14 23.83 34.11 23.79 34.13 23.73L34.37 22.69C34.39 22.62 34.43 22.6 34.5 22.61C34.57 22.63 34.6 22.66 34.58 22.73C34.56 22.85 34.55 22.92 34.55 22.95C34.57 22.99 34.62 23.03 34.73 23.06L36.84 23.55C36.93 23.57 36.98 23.55 37.02 23.51C37.04 23.49 37.06 23.42 37.08 23.31C37.14 23.05 37.16 22.86 37.15 22.76C37.13 22.66 37.07 22.58 36.95 22.52C36.79 22.44 36.63 22.37 36.47 22.29C36.42 22.27 36.41 22.23 36.42 22.16C36.44 22.09 36.47 22.06 36.52 22.07H36.53ZM35.4 25.55L34.25 25.52L35.14 26.25L35.4 25.55ZM36.88 24.82C36.95 24.85 36.97 24.89 36.95 24.95L36.59 25.89C36.56 25.95 36.52 25.97 36.45 25.94C36.38 25.91 36.37 25.84 36.41 25.74C36.45 25.63 36.45 25.57 36.4 25.56C36.38 25.55 36.34 25.55 36.28 25.54H35.67L35.33 26.42L35.77 26.82C35.77 26.82 35.85 26.88 35.87 26.9C35.91 26.92 35.96 26.87 36 26.76C36.04 26.65 36.1 26.61 36.17 26.64C36.23 26.67 36.25 26.71 36.23 26.78L35.94 27.52C35.92 27.58 35.87 27.59 35.81 27.56C35.74 27.54 35.72 27.49 35.74 27.44C35.78 27.33 35.74 27.23 35.61 27.12L33.55 25.31C33.55 25.31 33.52 25.23 33.55 25.15C33.58 25.07 33.62 25.03 33.66 25.03H36.5C36.58 25.03 36.63 25.03 36.65 25.01C36.68 24.99 36.7 24.94 36.73 24.88C36.75 24.82 36.8 24.81 36.86 24.83L36.88 24.82ZM34.01 26.82C34.06 26.84 34.07 26.89 34.03 26.97C34 27.03 33.92 27.05 33.81 27.01C33.7 26.98 33.58 26.94 33.47 26.91C33.32 26.88 33.21 26.89 33.12 26.95C33.06 26.99 33.01 27.05 32.97 27.13C32.93 27.2 32.91 27.26 32.91 27.29C32.91 27.32 32.94 27.35 33.02 27.39L34.95 28.46C35.03 28.51 35.1 28.51 35.15 28.48C35.17 28.47 35.21 28.41 35.26 28.3C35.29 28.24 35.34 28.23 35.41 28.26C35.47 28.3 35.48 28.34 35.46 28.39L34.9 29.39C34.87 29.45 34.82 29.46 34.76 29.43C34.7 29.4 34.69 29.35 34.72 29.29C34.78 29.18 34.81 29.11 34.81 29.08C34.81 29.04 34.77 28.98 34.68 28.93L32.77 27.87C32.69 27.83 32.64 27.81 32.62 27.82C32.6 27.83 32.56 27.88 32.51 27.95C32.47 28.03 32.44 28.11 32.44 28.17C32.44 28.28 32.48 28.39 32.59 28.49C32.68 28.57 32.77 28.65 32.85 28.73C32.94 28.81 32.97 28.88 32.93 28.94C32.89 29.01 32.85 29.04 32.8 29.01L32.02 28.52C32.02 28.52 31.97 28.45 32 28.4L33.08 26.45C33.11 26.4 33.15 26.39 33.19 26.41L34.02 26.81L34.01 26.82ZM34.17 30.41L33.56 31.18C33.52 31.24 33.47 31.24 33.41 31.2C33.35 31.16 33.35 31.1 33.39 31.05C33.45 30.97 33.48 30.91 33.46 30.87C33.46 30.85 33.4 30.8 33.31 30.73L31.61 29.4C31.55 29.35 31.5 29.33 31.48 29.34C31.46 29.34 31.41 29.39 31.36 29.46C31.32 29.52 31.26 29.52 31.21 29.48C31.15 29.44 31.15 29.39 31.19 29.33L31.8 28.56C31.84 28.5 31.89 28.5 31.94 28.54C32 28.58 32.01 28.64 31.97 28.69C31.93 28.74 31.9 28.77 31.9 28.8C31.88 28.86 31.94 28.94 32.09 29.05L33.71 30.32C33.78 30.38 33.84 30.4 33.87 30.4C33.9 30.4 33.94 30.36 34.01 30.28C34.05 30.22 34.1 30.22 34.16 30.26C34.21 30.31 34.22 30.35 34.18 30.4L34.17 30.41ZM31.33 30.49C31.21 30.37 31.08 30.29 30.94 30.27C30.78 30.24 30.64 30.27 30.53 30.39L30.29 30.62C30.22 30.69 30.18 30.74 30.18 30.78C30.18 30.82 30.21 30.87 30.27 30.94L30.99 31.69L31.28 31.4C31.61 31.09 31.62 30.78 31.34 30.48L31.33 30.49ZM31.74 30.09C31.92 30.28 31.99 30.5 31.96 30.76C31.93 31 31.82 31.21 31.63 31.4L31.15 31.87L31.73 32.48C31.81 32.58 31.88 32.61 31.91 32.61C31.95 32.61 32.02 32.56 32.11 32.47C32.16 32.43 32.21 32.43 32.25 32.47C32.29 32.52 32.29 32.57 32.25 32.62L31.45 33.4C31.45 33.4 31.35 33.44 31.31 33.4C31.27 33.35 31.27 33.3 31.31 33.26C31.41 33.16 31.46 33.1 31.46 33.06C31.46 33.03 31.42 32.96 31.33 32.87L29.89 31.38C29.81 31.29 29.75 31.25 29.71 31.25C29.68 31.25 29.61 31.3 29.51 31.4C29.47 31.44 29.41 31.44 29.36 31.39C29.31 31.34 29.31 31.29 29.36 31.25L30.4 30.25C30.61 30.04 30.83 29.92 31.06 29.88C31.31 29.84 31.54 29.91 31.74 30.12V30.09ZM30.52 33.07C30.68 33.3 30.72 33.54 30.64 33.79C30.57 34.02 30.42 34.22 30.18 34.4C29.88 34.62 29.58 34.71 29.26 34.66L29.32 34.92C29.32 34.92 29.31 35.01 29.25 35.05C29.2 35.08 29.16 35.08 29.14 35.05L28.49 34.2C28.49 34.2 28.48 34.11 28.55 34.06C28.61 34.02 28.66 34.01 28.7 34.04C28.71 34.05 28.73 34.07 28.76 34.09C28.95 34.24 29.15 34.32 29.37 34.34C29.61 34.36 29.81 34.3 30 34.16C30.13 34.07 30.22 33.96 30.27 33.83C30.33 33.68 30.32 33.55 30.23 33.43C30.1 33.24 29.86 33.19 29.54 33.28C29.25 33.38 28.95 33.47 28.66 33.56C28.31 33.61 28.04 33.52 27.85 33.25C27.69 33.04 27.65 32.81 27.73 32.57C27.79 32.35 27.93 32.15 28.14 32C28.4 31.81 28.67 31.74 28.94 31.79L28.9 31.56C28.88 31.51 28.9 31.46 28.95 31.43C29 31.4 29.04 31.4 29.07 31.43L29.67 32.19C29.67 32.19 29.69 32.28 29.63 32.32C29.57 32.36 29.52 32.37 29.47 32.34C29.46 32.34 29.44 32.32 29.4 32.3C29.23 32.18 29.05 32.11 28.85 32.09C28.64 32.07 28.45 32.12 28.29 32.25C28.18 32.33 28.1 32.42 28.07 32.53C28.03 32.65 28.04 32.77 28.11 32.87C28.25 33.06 28.47 33.1 28.79 33C29.08 32.9 29.36 32.8 29.65 32.7C30 32.64 30.28 32.77 30.51 33.07H30.52ZM26.16 33.46C25.91 33.58 25.78 33.81 25.77 34.14C25.77 34.4 25.83 34.68 25.95 34.95C26.08 35.23 26.25 35.44 26.45 35.61C26.7 35.82 26.95 35.86 27.21 35.74C27.46 35.62 27.59 35.39 27.59 35.05C27.59 34.77 27.53 34.5 27.41 34.22C27.28 33.95 27.12 33.73 26.92 33.57C26.67 33.37 26.41 33.34 26.16 33.45V33.46ZM27.37 36.02C26.98 36.2 26.6 36.21 26.23 36.04C25.88 35.88 25.62 35.6 25.43 35.2C25.24 34.81 25.2 34.42 25.3 34.05C25.4 33.65 25.65 33.37 26.04 33.18C26.43 33 26.81 32.99 27.18 33.18C27.53 33.34 27.79 33.62 27.98 34.01C28.16 34.41 28.21 34.8 28.11 35.17C28 35.56 27.76 35.85 27.37 36.03V36.02ZM25.5 36.66C25.52 36.73 25.5 36.78 25.42 36.79L24.39 37.05C24.33 37.07 24.28 37.04 24.27 36.97C24.25 36.9 24.27 36.86 24.34 36.84C24.46 36.81 24.54 36.78 24.56 36.75C24.58 36.72 24.58 36.64 24.55 36.53L24.32 35.6L23.11 35.9L23.35 36.84C23.38 36.95 23.42 37.02 23.46 37.03C23.49 37.04 23.57 37.03 23.69 37C23.75 36.98 23.79 37 23.81 37.07C23.83 37.14 23.81 37.19 23.74 37.2L22.7 37.46C22.64 37.48 22.6 37.45 22.58 37.38C22.56 37.31 22.59 37.27 22.65 37.25C22.76 37.22 22.82 37.19 22.84 37.15C22.85 37.12 22.84 37.04 22.81 36.93L22.32 34.96C22.29 34.84 22.26 34.77 22.24 34.75C22.21 34.73 22.13 34.73 22.02 34.75C21.95 34.76 21.91 34.75 21.9 34.67C21.88 34.6 21.9 34.56 21.97 34.54L23.01 34.28C23.08 34.26 23.12 34.29 23.14 34.37C23.16 34.44 23.14 34.48 23.07 34.49C22.95 34.52 22.87 34.54 22.85 34.57C22.82 34.6 22.82 34.67 22.85 34.79L23.06 35.64L24.27 35.34L24.06 34.52C24.03 34.4 24 34.33 23.96 34.31C23.93 34.3 23.85 34.31 23.72 34.34C23.65 34.35 23.61 34.34 23.6 34.26C23.58 34.19 23.6 34.15 23.67 34.13L24.71 33.87C24.78 33.85 24.82 33.88 24.84 33.95C24.86 34.02 24.84 34.06 24.77 34.08C24.66 34.11 24.6 34.14 24.59 34.18C24.57 34.22 24.58 34.29 24.61 34.41L25.1 36.39C25.13 36.51 25.16 36.58 25.19 36.6C25.21 36.62 25.28 36.62 25.39 36.59C25.46 36.57 25.51 36.59 25.52 36.66H25.5ZM18.74 37.68C18.65 37.68 18.61 37.65 18.6 37.61L17.89 34.89C17.87 34.81 17.84 34.76 17.8 34.73C17.77 34.71 17.71 34.7 17.62 34.69C17.56 34.69 17.53 34.65 17.54 34.58C17.54 34.5 17.58 34.47 17.64 34.47L18.73 34.57C18.79 34.57 18.82 34.61 18.81 34.69C18.81 34.76 18.77 34.8 18.71 34.79C18.55 34.78 18.47 34.79 18.46 34.85C18.46 34.87 18.46 34.92 18.48 34.99L18.92 36.88L19.65 35.11C19.68 35.03 19.71 34.98 19.71 34.96C19.71 34.92 19.66 34.89 19.55 34.87C19.44 34.87 19.39 34.82 19.39 34.75C19.39 34.68 19.43 34.64 19.5 34.65L20.36 34.72C20.42 34.72 20.45 34.76 20.44 34.84C20.44 34.91 20.4 34.95 20.34 34.94C20.21 34.93 20.13 34.94 20.08 34.98C20.05 35 20.01 35.08 19.95 35.22L18.87 37.64C18.87 37.64 18.8 37.7 18.72 37.68H18.74ZM16.73 37.39L15.78 37.15C15.71 37.13 15.69 37.09 15.7 37.02C15.72 36.95 15.76 36.93 15.83 36.94C15.93 36.97 15.99 36.96 16.03 36.94C16.05 36.92 16.07 36.86 16.1 36.74L16.62 34.64C16.64 34.56 16.64 34.52 16.62 34.5C16.6 34.48 16.55 34.46 16.46 34.44C16.39 34.42 16.37 34.38 16.39 34.31C16.41 34.24 16.45 34.22 16.51 34.24L17.46 34.47C17.53 34.49 17.55 34.53 17.53 34.59C17.51 34.66 17.47 34.69 17.41 34.67C17.34 34.65 17.3 34.65 17.27 34.65C17.21 34.65 17.16 34.75 17.12 34.92L16.62 36.93C16.6 37.02 16.6 37.08 16.62 37.1C16.63 37.13 16.69 37.15 16.78 37.18C16.85 37.19 16.87 37.24 16.85 37.31C16.83 37.38 16.79 37.4 16.73 37.38V37.39ZM14.63 37C14.55 36.97 14.5 36.92 14.48 36.86L13.81 34.08L13.09 35.86C13.06 35.94 13.06 36.01 13.09 36.05C13.11 36.08 13.17 36.11 13.27 36.15C13.33 36.18 13.35 36.22 13.32 36.29C13.29 36.36 13.24 36.38 13.17 36.35L12.33 36.01C12.27 35.99 12.25 35.94 12.28 35.88C12.31 35.81 12.35 35.78 12.41 35.81C12.52 35.85 12.58 35.87 12.61 35.86C12.65 35.86 12.7 35.81 12.73 35.72L13.54 33.71C13.58 33.62 13.58 33.56 13.55 33.53C13.53 33.51 13.47 33.48 13.36 33.43C13.3 33.4 13.28 33.36 13.31 33.29C13.34 33.22 13.38 33.21 13.44 33.23L14.12 33.51C14.12 33.51 14.19 33.55 14.2 33.6L14.76 35.99L15.38 34.46C15.42 34.38 15.42 34.31 15.38 34.27C15.36 34.25 15.3 34.22 15.2 34.18C15.14 34.15 15.12 34.11 15.15 34.03C15.18 33.97 15.22 33.95 15.28 33.97L16.12 34.31C16.19 34.34 16.21 34.39 16.18 34.45C16.15 34.52 16.11 34.54 16.05 34.52C15.93 34.47 15.85 34.45 15.81 34.47C15.78 34.49 15.73 34.57 15.68 34.69L14.75 36.99C14.75 36.99 14.68 37.04 14.6 36.99L14.63 37ZM11.93 34.66C11.75 34.94 11.5 35.1 11.2 35.14C10.91 35.18 10.62 35.1 10.34 34.93C10.08 34.76 9.89999 34.54 9.80999 34.27C9.70999 33.99 9.74999 33.72 9.91999 33.46L10.79 32.12C10.86 32.01 10.89 31.94 10.88 31.91C10.87 31.88 10.81 31.82 10.7 31.75C10.64 31.71 10.64 31.66 10.68 31.6C10.72 31.54 10.76 31.53 10.82 31.57L11.76 32.18C11.82 32.22 11.83 32.27 11.79 32.34C11.75 32.4 11.71 32.41 11.65 32.37C11.54 32.3 11.47 32.26 11.43 32.27C11.39 32.27 11.34 32.33 11.27 32.44L10.44 33.71C10.33 33.88 10.28 34.06 10.32 34.25C10.35 34.43 10.45 34.58 10.62 34.7C10.8 34.81 10.99 34.85 11.18 34.8C11.37 34.75 11.52 34.63 11.65 34.45L12.47 33.18C12.53 33.09 12.55 33.02 12.54 32.98C12.53 32.95 12.47 32.9 12.37 32.84C12.31 32.8 12.3 32.76 12.34 32.69C12.38 32.63 12.43 32.62 12.48 32.65L13.25 33.15C13.31 33.19 13.32 33.24 13.28 33.3C13.25 33.36 13.2 33.37 13.14 33.34C13.05 33.27 12.98 33.24 12.94 33.24C12.9 33.24 12.84 33.29 12.78 33.38L11.94 34.67L11.93 34.66ZM7.45999 30.81L8.04999 29.82L6.98999 30.24L7.46999 30.81H7.45999ZM7.37999 32.46C7.31999 32.5 7.27999 32.5 7.22999 32.46L6.58999 31.69C6.58999 31.69 6.55999 31.59 6.60999 31.55C6.66999 31.51 6.72999 31.52 6.80999 31.61C6.87999 31.69 6.93999 31.72 6.97999 31.69C6.99999 31.68 7.01999 31.65 7.04999 31.59L7.33999 31.05L6.73999 30.34L6.16999 30.53C6.10999 30.55 6.06999 30.57 6.04999 30.58C6.00999 30.61 6.02999 30.67 6.10999 30.76C6.17999 30.85 6.18999 30.92 6.12999 30.97C6.07999 31.01 6.02999 31.01 5.97999 30.96L5.46999 30.35C5.46999 30.35 5.43999 30.26 5.48999 30.22C5.54999 30.17 5.58999 30.17 5.62999 30.22C5.70999 30.3 5.81999 30.32 5.97999 30.26L8.55999 29.33C8.55999 29.33 8.64999 29.34 8.70999 29.41C8.76999 29.47 8.77999 29.52 8.75999 29.56L7.36999 32.04C7.33999 32.11 7.31999 32.16 7.31999 32.18C7.31999 32.22 7.34999 32.26 7.39999 32.31C7.43999 32.35 7.43999 32.41 7.37999 32.45V32.46ZM5.23999 29.89C5.17999 29.93 5.12999 29.91 5.08999 29.85L4.56999 28.91C4.53999 28.85 4.54999 28.81 4.61999 28.78C4.67999 28.74 4.72999 28.75 4.75999 28.81C4.81999 28.92 4.86999 28.98 4.90999 29C4.93999 29 5.01999 28.99 5.11999 28.93L5.94999 28.47L5.33999 27.38L4.48999 27.85C4.37999 27.9 4.32999 27.96 4.32999 28C4.32999 28.03 4.35999 28.1 4.41999 28.21C4.44999 28.27 4.43999 28.32 4.37999 28.35C4.30999 28.38 4.25999 28.37 4.22999 28.31L3.70999 27.38C3.67999 27.32 3.68999 27.27 3.75999 27.24C3.81999 27.2 3.86999 27.22 3.89999 27.27C3.95999 27.37 4.00999 27.42 4.04999 27.43C4.07999 27.43 4.14999 27.41 4.25999 27.35L6.02999 26.37C6.13999 26.31 6.19999 26.26 6.21999 26.24C6.23999 26.2 6.21999 26.13 6.15999 26.03C6.12999 25.98 6.13999 25.92 6.19999 25.89C6.25999 25.86 6.30999 25.87 6.33999 25.92L6.84999 26.85C6.88999 26.92 6.86999 26.96 6.80999 27C6.74999 27.03 6.69999 27.02 6.66999 26.96C6.60999 26.85 6.56999 26.79 6.53999 26.77C6.49999 26.75 6.42999 26.77 6.32999 26.83L5.55999 27.25L6.16999 28.34L6.91999 27.92C7.02999 27.86 7.08999 27.81 7.08999 27.78C7.08999 27.75 7.06999 27.67 7.00999 27.56C6.97999 27.51 6.98999 27.46 7.05999 27.42C7.11999 27.38 7.16999 27.4 7.19999 27.45L7.71999 28.39C7.75999 28.45 7.73999 28.5 7.67999 28.53C7.61999 28.57 7.56999 28.55 7.53999 28.5C7.47999 28.4 7.42999 28.34 7.39999 28.34C7.35999 28.34 7.28999 28.36 7.17999 28.42L5.39999 29.41C5.28999 29.47 5.23999 29.51 5.21999 29.54C5.20999 29.58 5.21999 29.64 5.27999 29.73C5.30999 29.8 5.29999 29.85 5.23999 29.88V29.89ZM3.22999 26.44C3.19999 26.36 3.20999 26.29 3.24999 26.24L4.94999 23.94L3.11999 24.53C3.03999 24.56 2.98999 24.6 2.97999 24.65C2.97999 24.69 2.97999 24.75 3.01999 24.85C3.03999 24.91 3.01999 24.96 2.94999 24.98C2.87999 25 2.82999 24.98 2.80999 24.91L2.52999 24.04C2.50999 23.98 2.52999 23.93 2.59999 23.92C2.66999 23.89 2.71999 23.92 2.72999 23.98C2.76999 24.09 2.79999 24.15 2.81999 24.18C2.84999 24.21 2.91999 24.21 3.01999 24.18L5.07999 23.51C5.17999 23.48 5.22999 23.44 5.22999 23.4C5.22999 23.38 5.21999 23.31 5.17999 23.2C5.15999 23.13 5.17999 23.09 5.25999 23.07C5.32999 23.05 5.36999 23.07 5.38999 23.13L5.60999 23.83C5.60999 23.83 5.60999 23.91 5.59999 23.95L4.12999 25.92L5.69999 25.41C5.77999 25.38 5.82999 25.34 5.83999 25.29C5.83999 25.26 5.82999 25.19 5.79999 25.09C5.77999 25.03 5.79999 24.98 5.87999 24.96C5.93999 24.94 5.98999 24.96 6.00999 25.02L6.28999 25.88C6.30999 25.95 6.28999 26 6.21999 26.02C6.14999 26.04 6.10999 26.02 6.08999 25.96C6.04999 25.83 6.00999 25.76 5.96999 25.75C5.92999 25.75 5.84999 25.75 5.70999 25.8L3.34999 26.57C3.34999 26.57 3.26999 26.55 3.23999 26.46L3.22999 26.44ZM2.40999 23.26L2.23999 22.3C2.22999 22.23 2.25999 22.19 2.31999 22.18C2.38999 22.18 2.42999 22.2 2.43999 22.27C2.45999 22.37 2.47999 22.43 2.51999 22.45C2.53999 22.45 2.60999 22.45 2.72999 22.43L4.85999 22.05C4.93999 22.04 4.97999 22.02 4.98999 21.99C4.99999 21.96 4.98999 21.91 4.98999 21.82C4.97999 21.75 5.00999 21.71 5.06999 21.7C5.13999 21.69 5.17999 21.72 5.18999 21.78L5.35999 22.74C5.36999 22.81 5.33999 22.85 5.27999 22.86C5.20999 22.87 5.16999 22.85 5.15999 22.78C5.14999 22.72 5.13999 22.67 5.12999 22.66C5.09999 22.6 4.99999 22.59 4.81999 22.62L2.78999 22.98C2.69999 23 2.63999 23.01 2.61999 23.04C2.59999 23.06 2.59999 23.12 2.61999 23.22C2.62999 23.29 2.59999 23.33 2.53999 23.34C2.46999 23.34 2.42999 23.32 2.41999 23.25L2.40999 23.26Z" fill="#007DC5"/>
<path fill-rule="evenodd" clip-rule="evenodd" d="M3.49001 15.67L2.92001 15.51L3.57001 13.24L4.14001 13.4L3.49001 15.67ZM6.24001 16.66L5.67001 16.5L6.43001 13.87L7.00001 14.03L6.24001 16.66ZM3.58001 16.09L6.31001 16.87L6.15001 17.42L4.22001 16.87C4.31001 17 4.39001 17.13 4.46001 17.27L3.87001 17.4C3.53001 16.81 3.04001 16.3 2.42001 15.86L2.78001 15.42C3.09001 15.66 3.36001 15.88 3.58001 16.09ZM10.42 5.61L10.53 5.75L10.09 6.1L9.98001 5.96L9.23001 6.54L9.34001 6.69L8.90001 7.03L8.79001 6.88L8.04001 7.46L7.71001 7.03L8.45001 6.45L8.32001 6.28L8.76001 5.93L8.90001 6.11L9.64001 5.53L9.51001 5.35L9.95001 5L10.09 5.18L10.82 4.6L11.15 5.03L10.42 5.61ZM11.41 5.84L12.67 7.45C12.85 7.69 12.75 7.96 12.36 8.26C12.17 8.4 11.96 8.54 11.71 8.65L11.35 8.19C11.66 8.07 11.88 7.97 11.99 7.88C12.11 7.78 12.15 7.69 12.09 7.62L10.96 6.18L9.46001 7.35L9.12001 6.92L11.3 5.22L11.64 5.65L11.39 5.84H11.41ZM11.87 7.7L10.63 8.67C10.58 8.7 10.53 8.7 10.5 8.65L9.63001 7.54C9.63001 7.54 9.60001 7.45 9.65001 7.41L10.89 6.44C10.94 6.4 10.99 6.4 11.02 6.44L11.89 7.56C11.92 7.61 11.91 7.66 11.87 7.69V7.7ZM9.38001 7.59L10.8 9.4L10.36 9.75L9.49001 8.63C9.49001 8.75 9.48001 8.88 9.47001 9L8.93001 8.79C8.97001 8.25 8.88001 7.7 8.68001 7.14L9.21001 6.99C9.29001 7.24 9.35001 7.43 9.39001 7.58L9.38001 7.59ZM10.64 7.96L11.18 7.54L10.87 7.14L10.33 7.56L10.64 7.96ZM21.5 6.15C20.67 5.5 20.13 4.86 19.89 4.24C19.73 4.66 19.5 5.01 19.21 5.3C18.95 5.56 18.58 5.81 18.11 6.05L17.73 5.59C18.75 5.16 19.36 4.44 19.57 3.42L17.97 3.39V2.83L19.62 2.86V2L20.22 2.01L20.2 2.87L21.81 2.9V3.46L20.25 3.43C20.39 4.3 20.98 5.08 22 5.78L21.51 6.15H21.5ZM28.65 9.27L29 8.78C29.14 8.96 29.25 9.09 29.34 9.16C29.46 9.25 29.55 9.27 29.61 9.19L29.74 9.02L29.35 9.04C29.36 8.73 29.36 8.43 29.35 8.13C29.03 8.27 28.68 8.32 28.3 8.28L28.27 7.96L27.81 8.55L27.38 8.21L28.76 6.44C28.82 6.37 28.89 6.36 28.96 6.42L29.76 7.05L29.88 6.9L28.99 6.21L29.32 5.8L31.54 7.53L31.21 7.94L30.31 7.23L30.19 7.38L31.01 8.02C31.09 8.08 31.1 8.15 31.04 8.23L29.87 9.72C29.69 9.95 29.39 9.9 28.98 9.58C28.86 9.48 28.75 9.38 28.64 9.26L28.65 9.27ZM29.37 5.68C29.37 5.68 29.33 5.66 29.31 5.68C29.25 5.76 29.15 5.89 29.02 6.05C28.9 6.22 28.8 6.34 28.74 6.42C28.44 6.8 28.17 7.09 27.92 7.3C27.59 7.56 27.21 7.75 26.8 7.84L26.56 7.34C27.06 7.2 27.47 6.98 27.79 6.67C27.69 6.67 27.57 6.67 27.43 6.65L27.5 6.1C27.71 6.12 27.97 6.13 28.26 6.12L28.48 5.84L28.1 5.63C28.32 5.26 28.49 4.95 28.58 4.69L29.05 4.92C29.01 5.05 28.95 5.18 28.89 5.31L29.13 5C29.2 4.92 29.28 4.9 29.36 4.97L30.45 5.83L30.6 5.63L31.04 5.98L30.89 6.17L32 7.04L31.67 7.47L29.36 5.67L29.37 5.68ZM30.37 8.22C30.37 8.22 30.37 8.2 30.37 8.19L29.85 7.79L29.82 7.81C29.86 8.12 29.89 8.46 29.9 8.82L30.37 8.22ZM28.97 7.1H28.95L28.44 7.75C28.79 7.8 29.12 7.7 29.43 7.46L28.98 7.1H28.97ZM35.44 15.16L35.94 15.01L36.36 16.47L35.86 16.62L35.44 15.16ZM36.08 17.09L36.1 16.56C36.25 16.57 36.4 16.57 36.56 16.56C36.59 16.56 36.6 16.54 36.59 16.5L36.13 14.9C36.13 14.9 36.11 14.88 36.1 14.88L35.63 15.01L35.49 14.51L35.92 14.39C35.62 14.39 35.39 14.43 35.25 14.47C35.18 14.49 35.14 14.51 35.12 14.54C34.9 14.79 34.64 14.96 34.35 15.05C34.16 15.1 33.99 15.1 33.85 15.04C33.69 14.97 33.58 14.83 33.52 14.62C33.5 14.54 33.48 14.44 33.48 14.34L32.74 14.55L32.59 14.03L36.32 12.96C36.38 12.94 36.42 12.96 36.44 13.03L36.7 13.95L36.58 14.37H36.53L36.79 15.27L37.08 15.18L37.23 15.72L36.94 15.8L37.22 16.78C37.27 16.93 37.2 17.02 37.04 17.06C36.74 17.11 36.43 17.12 36.09 17.09H36.08ZM33.55 17.47L33.39 16.89C33.34 16.72 33.4 16.61 33.57 16.56L34.93 16.17L34.86 15.93C34.46 16.04 34.1 16.05 33.79 15.94C33.48 15.84 33.18 15.63 32.89 15.3L33.23 14.84C33.44 15.14 33.66 15.33 33.88 15.42C34.11 15.5 34.38 15.5 34.7 15.42L34.59 15.02L35.11 14.87L35.77 17.16L35.24 17.31L35.07 16.7L33.98 17.01C33.98 17.01 33.95 17.03 33.96 17.03L34.03 17.27C34.03 17.27 34.12 17.32 34.26 17.27C34.36 17.24 34.46 17.21 34.55 17.18L34.6 17.72C34.27 17.79 34.07 17.82 33.99 17.81C33.76 17.8 33.62 17.69 33.55 17.47ZM36.04 13.63C36.04 13.63 36.04 13.61 36.01 13.61L33.99 14.19C33.97 14.28 33.97 14.35 33.99 14.4C34.02 14.49 34.09 14.52 34.21 14.48C34.41 14.42 34.65 14.27 34.94 14C34.99 13.95 35.07 13.92 35.19 13.91L36.11 13.87L36.04 13.63Z" fill="#007DC5"/>
<path fill-rule="evenodd" clip-rule="evenodd" d="M19.87 6.81995C27.06 6.81995 32.91 12.6799 32.91 19.8699C32.91 27.0599 27.05 32.9199 19.87 32.9199C12.69 32.9199 6.82001 27.0499 6.82001 19.8699C6.82001 12.6899 12.68 6.81995 19.87 6.81995Z" fill="#007DC5"/>
<path fill-rule="evenodd" clip-rule="evenodd" d="M19.78 11.85H24.03V16.77H26.11V19.94H24.03V22.69H26.11V25.86H24.03V28.44H19.61V14.38C17.56 15.01 17.78 18.19 17.78 18.19V23.27C17.95 29.44 11.37 28.52 11.37 28.52V26.68C16.51 27.12 15.73 23.36 15.86 23.1V18.1C15.76 15.31 17.3 12.94 19.78 11.85Z" fill="white"/>
<path fill-rule="evenodd" clip-rule="evenodd" d="M65.01 6.60999C62.09 6.60999 59.8 7.42999 58.13 9.05999C56.63 10.54 55.87 12.4 55.87 14.63C55.87 16.86 56.62 18.66 58.13 20.14C59.79 21.79 62.09 22.62 65.01 22.62C67.93 22.62 70.19 21.79 71.85 20.14C73.38 18.66 74.15 16.82 74.15 14.63C74.15 12.44 73.38 10.54 71.85 9.05999C70.19 7.42999 67.91 6.60999 65.01 6.60999ZM65.01 9.72998C66.36 9.72998 67.41 10.23 68.17 11.23C68.88 12.13 69.23 13.28 69.23 14.66C69.23 16.04 68.88 17.16 68.17 18.06C67.42 19.06 66.37 19.56 65.01 19.56C63.65 19.56 62.58 19.06 61.82 18.06C61.13 17.16 60.79 16.02 60.79 14.66C60.79 13.3 61.14 12.13 61.82 11.23C62.57 10.22 63.63 9.72998 65.01 9.72998ZM77.9 6.74999V26.75H82.81V6.74999H77.9ZM63.08 25.28H58.17V31.17C58.17 32.25 58.49 33.03 59.13 33.51C59.82 33.99 60.94 34.23 62.51 34.23H83.03V31.11H63.07V25.28H63.08Z" fill="#0072BC"/>
<path fill-rule="evenodd" clip-rule="evenodd" d="M92.79 8.68998V11.78H98.54C96.39 12.65 94.85 14.15 93.92 16.31C93.1 18.19 92.79 20.48 92.99 23.15C93.17 25.63 94.03 27.75 95.58 29.5C97.33 31.5 99.55 32.5 102.26 32.5C104.97 32.5 107.16 31.53 108.94 29.58C110.51 27.87 111.46 25.77 111.79 23.29C112.1 20.85 111.77 18.58 110.8 16.48C109.73 14.23 108.13 12.66 105.98 11.78H111.76V8.68998H104.82V6.60999H99.91V8.68998H92.8H92.79ZM102.26 14.03C103.74 14.03 104.93 14.79 105.81 16.31C106.61 17.67 107.01 19.33 107.01 21.27C107.01 23.36 106.61 25.2 105.81 26.78C104.93 28.55 103.74 29.43 102.26 29.43C100.78 29.43 99.61 28.55 98.77 26.78C98.04 25.22 97.68 23.38 97.68 21.27C97.68 19.3 98.04 17.65 98.77 16.31C99.61 14.79 100.77 14.03 102.26 14.03ZM114.88 6.75999V34.52H119.79V21.19H123.15V18.01H119.79V6.75999H114.88Z" fill="#0072BC"/>
<path fill-rule="evenodd" clip-rule="evenodd" d="M141.67 7.34001H131.08V27.83C131.08 28.96 131.4 29.81 132.04 30.37C132.75 30.99 133.83 31.29 135.29 31.29H144.69V34.52H149.6V20.96H153.29V34.52H158.2V6.76001H153.29V17.78H149.6V6.76001H144.69V28.2H135.99V10.37H141.67V7.34001Z" fill="#0072BC"/>
<path fill-rule="evenodd" clip-rule="evenodd" d="M180.68 13.62V18.32H173.77V13.62H180.68ZM168.89 6.98V18.29C168.89 19.37 169.22 20.16 169.89 20.66C170.55 21.14 171.61 21.38 173.08 21.38H185.57V19.21H190.26V22.5H195.17V6.75H190.26V9.29H185.57V6.98H180.69V10.56H173.78V6.98H168.9H168.89ZM185.56 16.19V12.38H190.25V16.19H185.56ZM182.71 26.55C185.25 26.55 187.25 26.84 188.72 27.42C190.03 27.94 190.68 28.58 190.68 29.35C190.68 30.12 190.03 30.74 188.72 31.26C187.26 31.86 185.26 32.16 182.71 32.16C180.16 32.16 178.24 31.86 176.8 31.26C175.51 30.74 174.87 30.11 174.87 29.35C174.87 28.59 175.51 27.94 176.8 27.42C178.24 26.84 180.21 26.55 182.71 26.55ZM182.71 23.43C178.66 23.43 175.43 24.05 173.04 25.28C170.93 26.4 169.88 27.76 169.88 29.38C169.88 31 170.93 32.33 173.04 33.42C175.41 34.65 178.63 35.27 182.71 35.27C186.79 35.27 190.04 34.65 192.41 33.42C194.53 32.33 195.61 30.98 195.63 29.38C195.63 27.76 194.56 26.4 192.44 25.28C190.07 24.05 186.83 23.43 182.71 23.43Z" fill="#0072BC"/>
<path fill-rule="evenodd" clip-rule="evenodd" d="M215.07 6.60999C212.02 6.60999 209.62 7.20998 207.9 8.39998C206.35 9.45998 205.57 10.81 205.57 12.44C205.57 14.07 206.35 15.37 207.9 16.45C209.65 17.64 212.04 18.24 215.07 18.24C218.1 18.24 220.53 17.64 222.28 16.45C223.85 15.37 224.64 14.04 224.64 12.44C224.64 10.84 223.85 9.45998 222.28 8.39998C220.53 7.20998 218.12 6.60999 215.07 6.60999ZM215.07 9.69999C216.58 9.69999 217.75 9.96999 218.59 10.51C219.34 11.01 219.72 11.66 219.72 12.47C219.72 13.22 219.35 13.84 218.59 14.32C217.75 14.88 216.58 15.15 215.07 15.15C213.56 15.15 212.42 14.87 211.58 14.32C210.85 13.84 210.49 13.22 210.49 12.47C210.49 11.68 210.85 11.03 211.58 10.51C212.42 9.96999 213.58 9.69999 215.07 9.69999ZM204.81 19.02V22.11H212.25V25.77H207.96V31.17C207.96 32.25 208.28 33.03 208.92 33.51C209.61 33.99 210.73 34.23 212.3 34.23H232.82V31.11H212.86V26.75H217.15V22.11H227.68V23.64H222.13V26.76H227.68V28.38H232.59V6.75999H227.68V19.02H204.8H204.81Z" fill="#0072BC"/>
</g>
<defs>
<clipPath id="clip0_6_16">
<rect width="232.84" height="39.73" fill="white"/>
</clipPath>
</defs>
</svg>
