<svg width="24" height="48" viewBox="0 0 24 48" fill="none" xmlns="http://www.w3.org/2000/svg">
<g clip-path="url(#clip0_120_123)">
<path d="M4.25 6H6.25V9H16.25V6H18.25V11H20.25V6C20.25 4.9 19.35 4 18.25 4H14.07C13.65 2.84 12.55 2 11.25 2C9.95 2 8.85 2.84 8.43 4H4.25C3.15 4 2.25 4.9 2.25 6V20C2.25 21.1 3.15 22 4.25 22H10.25V20H4.25V6ZM11.25 4C11.8 4 12.25 4.45 12.25 5C12.25 5.55 11.8 6 11.25 6C10.7 6 10.25 5.55 10.25 5C10.25 4.45 10.7 4 11.25 4Z" fill="black"/>
<path d="M20.25 12.5L14.76 18L11.75 15L10.25 16.5L14.76 21L21.75 14L20.25 12.5Z" fill="black"/>
<path d="M4.25 30H6.25V33H16.25V30H18.25V35H20.25V30C20.25 28.9 19.35 28 18.25 28H14.07C13.65 26.84 12.55 26 11.25 26C9.95 26 8.85 26.84 8.43 28H4.25C3.15 28 2.25 28.9 2.25 30V44C2.25 45.1 3.15 46 4.25 46H10.25V44H4.25V30ZM11.25 28C11.8 28 12.25 28.45 12.25 29C12.25 29.55 11.8 30 11.25 30C10.7 30 10.25 29.55 10.25 29C10.25 28.45 10.7 28 11.25 28Z" fill="white"/>
<path d="M20.25 36.5L14.76 42L11.75 39L10.25 40.5L14.76 45L21.75 38L20.25 36.5Z" fill="white"/>
</g>
<defs>
<clipPath id="clip0_120_123">
<rect width="24" height="48" fill="white"/>
</clipPath>
</defs>
</svg>
