<svg width="24" height="48" viewBox="0 0 24 48" fill="none" xmlns="http://www.w3.org/2000/svg">
<g clip-path="url(#clip0_120_123)">
<path d="M19 4H18V2H16V4H8V2H6V4H5C3.89 4 3.01 4.9 3.01 6L3 20C3 21.1 3.89 22 5 22H19C20.1 22 21 21.1 21 20V6C21 4.9 20.1 4 19 4ZM19 20H5V10H19V20ZM19 8H5V6H19V8ZM9 14H7V12H9V14ZM13 14H11V12H13V14ZM17 14H15V12H17V14ZM9 18H7V16H9V18ZM13 18H11V16H13V18ZM17 18H15V16H17V18Z" fill="black"/>
<path d="M19 28H18V26H16V28H8V26H6V28H5C3.89 28 3.01 28.9 3.01 30L3 44C3 45.1 3.89 46 5 46H19C20.1 46 21 45.1 21 44V30C21 28.9 20.1 28 19 28ZM19 44H5V34H19V44ZM19 32H5V30H19V32ZM9 38H7V36H9V38ZM13 38H11V36H13V38ZM17 38H15V36H17V38ZM9 42H7V40H9V42ZM13 42H11V40H13V42ZM17 42H15V40H17V42Z" fill="white"/>
</g>
<defs>
<clipPath id="clip0_120_123">
<rect width="24" height="48" fill="white"/>
</clipPath>
</defs>
</svg>
