<svg width="24" height="48" viewBox="0 0 24 48" fill="none" xmlns="http://www.w3.org/2000/svg">
<g clip-path="url(#clip0_120_123)">
<path d="M19 12H18V4H6V12H5C3.34 12 2 13.34 2 15V20H22V15C22 13.34 20.66 12 19 12ZM8 6H16V12H8V6ZM20 18H4V15C4 14.45 4.45 14 5 14H19C19.55 14 20 14.45 20 15V18Z" fill="black"/>
<path d="M18 17C18.5523 17 19 16.5523 19 16C19 15.4477 18.5523 15 18 15C17.4477 15 17 15.4477 17 16C17 16.5523 17.4477 17 18 17Z" fill="black"/>
<path d="M19 36H18V28H6V36H5C3.34 36 2 37.34 2 39V44H22V39C22 37.34 20.66 36 19 36ZM8 30H16V36H8V30ZM20 42H4V39C4 38.45 4.45 38 5 38H19C19.55 38 20 38.45 20 39V42Z" fill="white"/>
<path d="M18 41C18.5523 41 19 40.5523 19 40C19 39.4477 18.5523 39 18 39C17.4477 39 17 39.4477 17 40C17 40.5523 17.4477 41 18 41Z" fill="white"/>
</g>
<defs>
<clipPath id="clip0_120_123">
<rect width="24" height="48" fill="white"/>
</clipPath>
</defs>
</svg>
