<svg width="24" height="48" viewBox="0 0 24 48" fill="none" xmlns="http://www.w3.org/2000/svg">
<g clip-path="url(#clip0_120_123)">
<path d="M19.4322 12.98C19.4722 12.66 19.5022 12.34 19.5022 12C19.5022 11.66 19.4722 11.34 19.4322 11.02L21.5422 9.37C21.7322 9.22 21.7822 8.95 21.6622 8.73L19.6622 5.27C19.5722 5.11 19.4022 5.02 19.2222 5.02C19.1622 5.02 19.1022 5.03 19.0522 5.05L16.5622 6.05C16.0422 5.65 15.4822 5.32 14.8722 5.07L14.4922 2.42C14.4622 2.18 14.2522 2 14.0022 2H10.0022C9.75222 2 9.54222 2.18 9.51222 2.42L9.13222 5.07C8.52222 5.32 7.96222 5.66 7.44222 6.05L4.95222 5.05C4.89222 5.03 4.83222 5.02 4.77222 5.02C4.60222 5.02 4.43222 5.11 4.34222 5.27L2.34222 8.73C2.21222 8.95 2.27222 9.22 2.46222 9.37L4.57222 11.02C4.53222 11.34 4.50222 11.67 4.50222 12C4.50222 12.33 4.53222 12.66 4.57222 12.98L2.46222 14.63C2.27222 14.78 2.22222 15.05 2.34222 15.27L4.34222 18.73C4.43222 18.89 4.60222 18.98 4.78222 18.98C4.84222 18.98 4.90222 18.97 4.95222 18.95L7.44222 17.95C7.96222 18.35 8.52222 18.68 9.13222 18.93L9.51222 21.58C9.54222 21.82 9.75222 22 10.0022 22H14.0022C14.2522 22 14.4622 21.82 14.4922 21.58L14.8722 18.93C15.4822 18.68 16.0422 18.34 16.5622 17.95L19.0522 18.95C19.1122 18.97 19.1722 18.98 19.2322 18.98C19.4022 18.98 19.5722 18.89 19.6622 18.73L21.6622 15.27C21.7822 15.05 21.7322 14.78 21.5422 14.63L19.4322 12.98ZM17.4522 11.27C17.4922 11.58 17.5022 11.79 17.5022 12C17.5022 12.21 17.4822 12.43 17.4522 12.73L17.3122 13.86L18.2022 14.56L19.2822 15.4L18.5822 16.61L17.3122 16.1L16.2722 15.68L15.3722 16.36C14.9422 16.68 14.5322 16.92 14.1222 17.09L13.0622 17.52L12.9022 18.65L12.7022 20H11.3022L10.9522 17.52L9.89222 17.09C9.46222 16.91 9.06222 16.68 8.66222 16.38L7.75222 15.68L6.69222 16.11L5.42222 16.62L4.72222 15.41L5.80222 14.57L6.69222 13.87L6.55222 12.74C6.52222 12.43 6.50222 12.2 6.50222 12C6.50222 11.8 6.52222 11.57 6.55222 11.27L6.69222 10.14L5.80222 9.44L4.72222 8.6L5.42222 7.39L6.69222 7.9L7.73222 8.32L8.63222 7.64C9.06222 7.32 9.47222 7.08 9.88222 6.91L10.9422 6.48L11.1022 5.35L11.3022 4H12.6922L13.0422 6.48L14.1022 6.91C14.5322 7.09 14.9322 7.32 15.3322 7.62L16.2422 8.32L17.3022 7.89L18.5722 7.38L19.2722 8.59L18.2022 9.44L17.3122 10.14L17.4522 11.27ZM12.0022 8C9.79222 8 8.00222 9.79 8.00222 12C8.00222 14.21 9.79222 16 12.0022 16C14.2122 16 16.0022 14.21 16.0022 12C16.0022 9.79 14.2122 8 12.0022 8ZM12.0022 14C10.9022 14 10.0022 13.1 10.0022 12C10.0022 10.9 10.9022 10 12.0022 10C13.1022 10 14.0022 10.9 14.0022 12C14.0022 13.1 13.1022 14 12.0022 14Z" fill="black"/>
<path d="M19.4322 36.98C19.4722 36.66 19.5022 36.34 19.5022 36C19.5022 35.66 19.4722 35.34 19.4322 35.02L21.5422 33.37C21.7322 33.22 21.7822 32.95 21.6622 32.73L19.6622 29.27C19.5722 29.11 19.4022 29.02 19.2222 29.02C19.1622 29.02 19.1022 29.03 19.0522 29.05L16.5622 30.05C16.0422 29.65 15.4822 29.32 14.8722 29.07L14.4922 26.42C14.4622 26.18 14.2522 26 14.0022 26H10.0022C9.75222 26 9.54222 26.18 9.51222 26.42L9.13222 29.07C8.52222 29.32 7.96222 29.66 7.44222 30.05L4.95222 29.05C4.89222 29.03 4.83222 29.02 4.77222 29.02C4.60222 29.02 4.43222 29.11 4.34222 29.27L2.34222 32.73C2.21222 32.95 2.27222 33.22 2.46222 33.37L4.57222 35.02C4.53222 35.34 4.50222 35.67 4.50222 36C4.50222 36.33 4.53222 36.66 4.57222 36.98L2.46222 38.63C2.27222 38.78 2.22222 39.05 2.34222 39.27L4.34222 42.73C4.43222 42.89 4.60222 42.98 4.78222 42.98C4.84222 42.98 4.90222 42.97 4.95222 42.95L7.44222 41.95C7.96222 42.35 8.52222 42.68 9.13222 42.93L9.51222 45.58C9.54222 45.82 9.75222 46 10.0022 46H14.0022C14.2522 46 14.4622 45.82 14.4922 45.58L14.8722 42.93C15.4822 42.68 16.0422 42.34 16.5622 41.95L19.0522 42.95C19.1122 42.97 19.1722 42.98 19.2322 42.98C19.4022 42.98 19.5722 42.89 19.6622 42.73L21.6622 39.27C21.7822 39.05 21.7322 38.78 21.5422 38.63L19.4322 36.98ZM17.4522 35.27C17.4922 35.58 17.5022 35.79 17.5022 36C17.5022 36.21 17.4822 36.43 17.4522 36.73L17.3122 37.86L18.2022 38.56L19.2822 39.4L18.5822 40.61L17.3122 40.1L16.2722 39.68L15.3722 40.36C14.9422 40.68 14.5322 40.92 14.1222 41.09L13.0622 41.52L12.9022 42.65L12.7022 44H11.3022L10.9522 41.52L9.89222 41.09C9.46222 40.91 9.06222 40.68 8.66222 40.38L7.75222 39.68L6.69222 40.11L5.42222 40.62L4.72222 39.41L5.80222 38.57L6.69222 37.87L6.55222 36.74C6.52222 36.43 6.50222 36.2 6.50222 36C6.50222 35.8 6.52222 35.57 6.55222 35.27L6.69222 34.14L5.80222 33.44L4.72222 32.6L5.42222 31.39L6.69222 31.9L7.73222 32.32L8.63222 31.64C9.06222 31.32 9.47222 31.08 9.88222 30.91L10.9422 30.48L11.1022 29.35L11.3022 28H12.6922L13.0422 30.48L14.1022 30.91C14.5322 31.09 14.9322 31.32 15.3322 31.62L16.2422 32.32L17.3022 31.89L18.5722 31.38L19.2722 32.59L18.2022 33.44L17.3122 34.14L17.4522 35.27ZM12.0022 32C9.79222 32 8.00222 33.79 8.00222 36C8.00222 38.21 9.79222 40 12.0022 40C14.2122 40 16.0022 38.21 16.0022 36C16.0022 33.79 14.2122 32 12.0022 32ZM12.0022 38C10.9022 38 10.0022 37.1 10.0022 36C10.0022 34.9 10.9022 34 12.0022 34C13.1022 34 14.0022 34.9 14.0022 36C14.0022 37.1 13.1022 38 12.0022 38Z" fill="white"/>
</g>
<defs>
<clipPath id="clip0_120_123">
<rect width="24" height="48" fill="white"/>
</clipPath>
</defs>
</svg>
