<svg width="17" height="16" viewBox="0 0 17 16" fill="none" xmlns="http://www.w3.org/2000/svg">
<g clip-path="url(#clip0_91_128)">
<path d="M12.8333 4.33337C10.8067 4.33337 9.16667 5.97337 9.16667 8.00004C9.16667 8.88671 9.48 9.70004 10.0067 10.3334H6.99333C7.52 9.70004 7.83333 8.88671 7.83333 8.00004C7.83333 5.97337 6.19333 4.33337 4.16667 4.33337C2.14 4.33337 0.5 5.97337 0.5 8.00004C0.5 10.0267 2.14 11.6667 4.16667 11.6667H12.8333C14.86 11.6667 16.5 10.0267 16.5 8.00004C16.5 5.97337 14.86 4.33337 12.8333 4.33337ZM4.16667 10.3334C2.88 10.3334 1.83333 9.28671 1.83333 8.00004C1.83333 6.71337 2.88 5.66671 4.16667 5.66671C5.45333 5.66671 6.5 6.71337 6.5 8.00004C6.5 9.28671 5.45333 10.3334 4.16667 10.3334ZM12.8333 10.3334C11.5467 10.3334 10.5 9.28671 10.5 8.00004C10.5 6.71337 11.5467 5.66671 12.8333 5.66671C14.12 5.66671 15.1667 6.71337 15.1667 8.00004C15.1667 9.28671 14.12 10.3334 12.8333 10.3334Z" fill="#727272"/>
</g>
<defs>
<clipPath id="clip0_91_128">
<rect width="16" height="16" fill="white" transform="translate(0.5)"/>
</clipPath>
</defs>
</svg>
