<svg width="24" height="48" viewBox="0 0 24 48" fill="none" xmlns="http://www.w3.org/2000/svg">
<g clip-path="url(#clip0_120_123)">
<path d="M18.5 1V4H21.5V6H18.5V9H16.5V6H13.5V4H16.5V1H18.5ZM10.5 13C9.4 13 8.5 12.1 8.5 11C8.5 9.9 9.4 9 10.5 9C11.6 9 12.5 9.9 12.5 11C12.5 12.1 11.6 13 10.5 13ZM11.5 3.06V5.08C11.1692 5.02773 10.8349 5.00098 10.5 5C7.15 5 4.5 7.57 4.5 11.2C4.5 13.54 6.45 16.64 10.5 20.34C14.55 16.64 16.5 13.55 16.5 11.2V11H18.5V11.2C18.5 14.52 15.83 18.45 10.5 23C5.17 18.45 2.5 14.52 2.5 11.2C2.5 6.22 6.3 3 10.5 3C10.84 3 11.17 3.02 11.5 3.06Z" fill="black"/>
<path d="M18.5 25V28H21.5V30H18.5V33H16.5V30H13.5V28H16.5V25H18.5ZM10.5 37C9.4 37 8.5 36.1 8.5 35C8.5 33.9 9.4 33 10.5 33C11.6 33 12.5 33.9 12.5 35C12.5 36.1 11.6 37 10.5 37ZM11.5 27.06V29.08C11.1692 29.0277 10.8349 29.001 10.5 29C7.15 29 4.5 31.57 4.5 35.2C4.5 37.54 6.45 40.64 10.5 44.34C14.55 40.64 16.5 37.55 16.5 35.2V35H18.5V35.2C18.5 38.52 15.83 42.45 10.5 47C5.17 42.45 2.5 38.52 2.5 35.2C2.5 30.22 6.3 27 10.5 27C10.84 27 11.17 27.02 11.5 27.06Z" fill="white"/>
</g>
<defs>
<clipPath id="clip0_120_123">
<rect width="24" height="48" fill="white"/>
</clipPath>
</defs>
</svg>
