<svg width="24" height="48" viewBox="0 0 24 48" fill="none" xmlns="http://www.w3.org/2000/svg">
<g clip-path="url(#clip0_120_123)">
<path d="M4.5 6H6.5V9H16.5V6H18.5V12H20.5V6C20.5 4.9 19.6 4 18.5 4H14.32C13.9 2.84 12.8 2 11.5 2C10.2 2 9.1 2.84 8.68 4H4.5C3.4 4 2.5 4.9 2.5 6V20C2.5 21.1 3.4 22 4.5 22H9.5V20H4.5V6ZM11.5 4C12.05 4 12.5 4.45 12.5 5C12.5 5.55 12.05 6 11.5 6C10.95 6 10.5 5.55 10.5 5C10.5 4.45 10.95 4 11.5 4Z" fill="black"/>
<path d="M17.51 14L16.09 15.41L17.67 16.99H11.5V18.99H17.67L16.09 20.58L17.51 21.99L21.5 17.99L17.51 14Z" fill="black"/>
<path d="M4.5 30H6.5V33H16.5V30H18.5V36H20.5V30C20.5 28.9 19.6 28 18.5 28H14.32C13.9 26.84 12.8 26 11.5 26C10.2 26 9.1 26.84 8.68 28H4.5C3.4 28 2.5 28.9 2.5 30V44C2.5 45.1 3.4 46 4.5 46H9.5V44H4.5V30ZM11.5 28C12.05 28 12.5 28.45 12.5 29C12.5 29.55 12.05 30 11.5 30C10.95 30 10.5 29.55 10.5 29C10.5 28.45 10.95 28 11.5 28Z" fill="white"/>
<path d="M17.51 38L16.09 39.41L17.67 40.99H11.5V42.99H17.67L16.09 44.58L17.51 45.99L21.5 41.99L17.51 38Z" fill="white"/>
</g>
<defs>
<clipPath id="clip0_120_123">
<rect width="24" height="48" fill="white"/>
</clipPath>
</defs>
</svg>
