<svg width="24" height="48" viewBox="0 0 24 48" fill="none" xmlns="http://www.w3.org/2000/svg">
<g clip-path="url(#clip0_120_123)">
<path d="M20 15.725C18.76 15.725 17.55 15.525 16.43 15.155C16.33 15.115 16.22 15.105 16.12 15.105C15.86 15.105 15.61 15.205 15.41 15.395L13.21 17.595C10.38 16.145 8.06 13.835 6.62 11.005L8.82 8.805C9.1 8.525 9.18 8.135 9.07 7.785C8.7 6.665 8.5 5.465 8.5 4.215C8.5 3.665 8.05 3.215 7.5 3.215H4C3.45 3.215 3 3.665 3 4.215C3 13.605 10.61 21.215 20 21.215C20.55 21.215 21 20.765 21 20.215V16.725C21 16.175 20.55 15.725 20 15.725ZM5.03 5.215H6.53C6.6 6.105 6.75 6.975 6.99 7.805L5.79 9.005C5.38 7.805 5.12 6.535 5.03 5.215ZM19 19.185C17.68 19.095 16.41 18.835 15.2 18.435L16.39 17.245C17.24 17.485 18.11 17.635 18.99 17.695V19.185H19ZM18 9.215H15.41L20.43 4.195L19.02 2.785L14 7.805V5.215H12V11.215H18V9.215Z" fill="black"/>
<path d="M20 39.725C18.76 39.725 17.55 39.525 16.43 39.155C16.33 39.115 16.22 39.105 16.12 39.105C15.86 39.105 15.61 39.205 15.41 39.395L13.21 41.595C10.38 40.145 8.06 37.835 6.62 35.005L8.82 32.805C9.1 32.525 9.18 32.135 9.07 31.785C8.7 30.665 8.5 29.465 8.5 28.215C8.5 27.665 8.05 27.215 7.5 27.215H4C3.45 27.215 3 27.665 3 28.215C3 37.605 10.61 45.215 20 45.215C20.55 45.215 21 44.765 21 44.215V40.725C21 40.175 20.55 39.725 20 39.725ZM5.03 29.215H6.53C6.6 30.105 6.75 30.975 6.99 31.805L5.79 33.005C5.38 31.805 5.12 30.535 5.03 29.215ZM19 43.185C17.68 43.095 16.41 42.835 15.2 42.435L16.39 41.245C17.24 41.485 18.11 41.635 18.99 41.695V43.185H19ZM18 33.215H15.41L20.43 28.195L19.02 26.785L14 31.805V29.215H12V35.215H18V33.215Z" fill="white"/>
</g>
<defs>
<clipPath id="clip0_120_123">
<rect width="24" height="48" fill="white"/>
</clipPath>
</defs>
</svg>
