<svg width="24" height="48" viewBox="0 0 24 48" fill="none" xmlns="http://www.w3.org/2000/svg">
<g clip-path="url(#clip0_120_123)">
<path d="M19 4H18V2H16V4H8V2H6V4H5C3.9 4 3 4.9 3 6V20C3 21.1 3.9 22 5 22H19C20.1 22 21 21.1 21 20V6C21 4.9 20.1 4 19 4ZM19 20H5V10H19V20ZM5 8V6H19V8H5ZM7 12H17V14H7V12ZM7 16H14V18H7V16Z" fill="black"/>
<path d="M19 28H18V26H16V28H8V26H6V28H5C3.9 28 3 28.9 3 30V44C3 45.1 3.9 46 5 46H19C20.1 46 21 45.1 21 44V30C21 28.9 20.1 28 19 28ZM19 44H5V34H19V44ZM5 32V30H19V32H5ZM7 36H17V38H7V36ZM7 40H14V42H7V40Z" fill="white"/>
</g>
<defs>
<clipPath id="clip0_120_123">
<rect width="24" height="48" fill="white"/>
</clipPath>
</defs>
</svg>
