<svg width="24" height="48" viewBox="0 0 24 48" fill="none" xmlns="http://www.w3.org/2000/svg">
<g clip-path="url(#clip0_120_123)">
<path d="M17 7.5L12 3.5L7 10.5L3 7.5V20.5H21V7.5H17ZM19 17.45L12 12L8 17.5L5 15.1V11.5L7.44 13.33L12.4 6.38L16.3 9.5H19V17.45Z" fill="black"/>
<path d="M17 31.5L12 27.5L7 34.5L3 31.5V44.5H21V31.5H17ZM19 41.45L12 36L8 41.5L5 39.1V35.5L7.44 37.33L12.4 30.38L16.3 33.5H19V41.45Z" fill="white"/>
</g>
<defs>
<clipPath id="clip0_120_123">
<rect width="24" height="48" fill="white"/>
</clipPath>
</defs>
</svg>
