<svg width="24" height="48" viewBox="0 0 24 48" fill="none" xmlns="http://www.w3.org/2000/svg">
<g clip-path="url(#clip0_120_123)">
<path d="M22 9.98V19C22 20.1 21.1 21 20 21H4C2.9 21 2 20.1 2 19L2.01 7C2.01 5.9 2.9 5 4 5H14.1C14.04 5.32 14 5.66 14 6C14 6.34 14.04 6.68 14.1 7H4L12 12L15.67 9.71C16.14 10.14 16.69 10.47 17.3 10.69L12 14L4 9V19H20V10.9C20.74 10.75 21.42 10.42 22 9.98ZM16 6C16 7.66 17.34 9 19 9C20.66 9 22 7.66 22 6C22 4.34 20.66 3 19 3C17.34 3 16 4.34 16 6Z" fill="black"/>
<path d="M22 33.98V43C22 44.1 21.1 45 20 45H4C2.9 45 2 44.1 2 43L2.01 31C2.01 29.9 2.9 29 4 29H14.1C14.04 29.32 14 29.66 14 30C14 30.34 14.04 30.68 14.1 31H4L12 36L15.67 33.71C16.14 34.14 16.69 34.47 17.3 34.69L12 38L4 33V43H20V34.9C20.74 34.75 21.42 34.42 22 33.98ZM16 30C16 31.66 17.34 33 19 33C20.66 33 22 31.66 22 30C22 28.34 20.66 27 19 27C17.34 27 16 28.34 16 30Z" fill="white"/>
</g>
<defs>
<clipPath id="clip0_120_123">
<rect width="24" height="48" fill="white"/>
</clipPath>
</defs>
</svg>
