<?xml version="1.0" standalone="no"?>
<!DOCTYPE svg PUBLIC "-//W3C//DTD SVG 20010904//EN"
 "http://www.w3.org/TR/2001/REC-SVG-20010904/DTD/svg10.dtd">
<svg version="1.0" xmlns="http://www.w3.org/2000/svg"
 width="180.000000pt" height="180.000000pt" viewBox="0 0 180.000000 180.000000"
 preserveAspectRatio="xMidYMid meet">
<metadata>
Created by potrace 1.14, written by Peter Selinger 2001-2017
</metadata>
<g transform="translate(0.000000,180.000000) scale(0.100000,-0.100000)"
fill="#000000" stroke="none">
<path d="M465 1794 c-131 -32 -189 -70 -343 -224 l-123 -123 78 -79 c42 -43
82 -78 87 -78 5 0 66 55 135 123 106 104 134 125 173 136 190 53 425 -125 442
-334 9 -105 -11 -144 -145 -280 -65 -67 -119 -124 -119 -128 0 -3 35 -42 79
-85 l78 -79 114 114 c145 144 169 158 274 157 69 0 88 -4 140 -31 76 -39 154
-118 191 -191 37 -75 43 -186 13 -247 -11 -22 -71 -92 -134 -155 -63 -63 -115
-119 -115 -124 0 -4 36 -44 79 -88 l79 -79 123 123 c182 184 219 251 224 418
6 169 -49 302 -175 430 -117 118 -233 175 -385 186 l-81 7 2 48 c0 26 -7 79
-17 119 -67 263 -312 464 -571 467 -46 1 -92 -1 -103 -3z"/>
<path d="M292 1113 c-134 -138 -173 -201 -193 -308 -23 -126 11 -290 84 -399
154 -231 391 -340 636 -291 13 2 53 18 88 35 51 23 92 57 194 157 l130 127
-84 84 -84 83 -115 -115 c-127 -126 -163 -147 -249 -147 -134 0 -273 98 -340
238 -26 54 -32 79 -32 133 0 41 7 80 17 102 9 19 68 87 131 150 l113 116 -80
81 c-44 44 -83 81 -87 81 -3 -1 -61 -58 -129 -127z"/>
</g>
</svg>
