<svg width="62" height="68" viewBox="0 0 62 68" fill="none" xmlns="http://www.w3.org/2000/svg">
<path d="M30.8475 21.6186C30.8475 21.6186 30.738 18.6188 34.163 19.5941L39.3528 20.9847C41.586 21.5255 42.8031 22.6333 41.8183 24.5582L30.8475 21.6186Z" fill="#D4D6E3"/>
<path d="M37.0518 20.3601L38.7201 14.1338" stroke="black" stroke-width="1.5" stroke-miterlimit="10"/>
<path d="M38.7224 14.1268C39.7148 14.3926 40.7348 13.8038 41.0006 12.8114C41.2665 11.8191 40.6777 10.7991 39.6853 10.5332C38.693 10.2673 37.673 10.8562 37.4071 11.8485C37.1412 12.8409 37.7301 13.8609 38.7224 14.1268Z" fill="black" stroke="black" stroke-width="0.5" stroke-miterlimit="10"/>
<g opacity="0.5">
<path d="M40.8071 6.37496L42.2473 1L40.8071 6.37496Z" fill="#D6D6E0"/>
<path d="M40.8071 6.37496L42.2473 1" stroke="#CCCCCC" stroke-width="2" stroke-miterlimit="10" stroke-linecap="round"/>
</g>
<path opacity="0.5" d="M43.6343 9.30424L47.6743 6.88087" stroke="#CCCCCC" stroke-width="2" stroke-miterlimit="10" stroke-linecap="round"/>
<path opacity="0.5" d="M36.7512 7.41832L34.4462 3.33594" stroke="#B3B3B3" stroke-width="2" stroke-miterlimit="10" stroke-linecap="round"/>
<path d="M27.7111 20.7943L44.2056 25.107C44.8796 25.349 45.4955 25.7295 46.0135 26.2241C46.5315 26.7186 46.9402 27.3162 47.2131 27.9783C47.6489 29.1285 47.6454 30.399 47.2032 31.5468L22.2122 24.8258C22.6388 23.5012 23.5248 22.3729 24.7103 21.6442C25.6119 21.087 26.6512 20.7927 27.7111 20.7943Z" fill="#A3A2C4"/>
<path d="M21.857 24.8305C18.0492 25.0702 14.4194 26.528 11.5035 28.9884C8.5876 31.4489 6.54006 34.7817 5.66317 38.4949C4.78628 42.208 5.12651 46.1048 6.63363 49.6098C8.14076 53.1148 10.7349 56.0423 14.0331 57.9602L37.5663 64.4716C41.4679 64.5658 45.2915 63.3691 48.4432 61.0672C51.5948 58.7653 53.8982 55.4872 54.9956 51.7419C56.0929 47.9965 55.9229 43.9937 54.5118 40.3549C53.1007 36.7162 50.5275 33.6452 47.192 31.619L21.857 24.8305Z" fill="#D5D6E1"/>
<path d="M7.99098 32.1735C7.21142 31.6789 6.27975 31.4819 5.36671 31.6184C4.74714 31.7493 4.16657 32.0227 3.67102 32.4169C3.17547 32.8112 2.77855 33.3154 2.51173 33.8897C1.94948 35.681 1.39696 37.4666 0.834706 39.2579C0.772533 40.2107 1.04283 41.1556 1.59948 41.9314C1.99193 42.4248 2.48846 42.8256 3.05365 43.1051C3.61883 43.3845 4.23874 43.5358 4.86912 43.548C5.03719 41.3396 5.4404 39.1553 6.07188 37.0324C6.57168 35.361 7.21373 33.7354 7.99098 32.1735Z" fill="#A0A1C1"/>
<path d="M53.2108 56.4186C53.9887 56.9173 54.9219 57.1147 55.8351 56.9737C56.4553 56.8446 57.0367 56.5718 57.5325 56.1774C58.0283 55.7829 58.4248 55.2778 58.69 54.7024C59.2425 52.9167 59.8048 51.1255 60.365 49.3419C60.4292 48.3889 60.1587 47.4433 59.6002 46.6684C59.2095 46.173 58.7138 45.7703 58.1488 45.4894C57.5838 45.2086 56.9635 45.0565 56.3326 45.0441C56.1635 47.2551 55.7596 49.4418 55.1278 51.5673C54.6287 53.2363 53.9874 54.8594 53.2108 56.4186Z" fill="#A3A1C4"/>
<path d="M23.858 29.2163C20.9128 29.0898 18.0071 29.9299 15.5838 31.6086C13.1606 33.2873 11.3528 35.7124 10.4362 38.5141C9.5195 41.3159 9.54425 44.3405 10.5067 47.1269C11.4691 49.9132 13.3163 52.3084 15.7667 53.9472L37.2034 59.9298C40.3113 60.2003 43.4151 59.3675 45.9701 57.5776C48.5251 55.7877 50.3681 53.1551 51.1755 50.1418C51.9829 47.1285 51.7031 43.9271 50.3854 41.0995C49.0676 38.2719 46.796 35.9988 43.9693 34.6792L23.858 29.2163Z" fill="#A4A3C1"/>
<path d="M42.8851 35.9937L17.1747 52.778C14.9754 51.3425 13.3117 49.221 12.4418 46.7429C11.572 44.2648 11.5448 41.5688 12.3644 39.0737C13.184 36.5785 14.8045 34.4238 16.9744 32.9442C19.1442 31.4646 21.7419 30.7429 24.3641 30.8911L42.5791 35.8459C42.6844 35.8881 42.7866 35.9374 42.8851 35.9937Z" fill="#343551"/>
<path d="M49.1899 49.5895C48.4596 52.2846 46.7926 54.6313 44.488 56.208C42.1834 57.7848 39.3922 58.4884 36.6155 58.1926L17.1974 52.7838L42.9078 35.9995C45.3772 37.1744 47.3575 39.1768 48.505 41.6591C49.6525 44.1414 49.8948 46.9471 49.1899 49.5895Z" fill="#25273E"/>
<path d="M21.7696 49.8786L26.5443 46.9532L35.4386 49.4433C36.5831 49.4962 37.7139 49.1768 38.6617 48.5331C39.6095 47.8893 40.3233 46.9558 40.696 45.8724C41.0688 44.789 41.0806 43.614 40.7295 42.5233C40.3785 41.4327 39.6835 40.4851 38.7488 39.8225C35.0239 38.7586 31.276 37.7187 27.5053 36.7029L26.7376 36.4972C25.6962 36.4442 24.6629 36.7057 23.7721 37.2476C22.8812 37.7896 22.174 38.5869 21.7422 39.536C21.3104 40.4852 21.174 41.5422 21.3508 42.5699C21.5276 43.5975 22.0094 44.5482 22.7336 45.2985L21.7696 49.8786Z" fill="#D3FC61"/>
<path d="M26.0345 42.6205C26.7088 42.8011 27.4019 42.401 27.5825 41.7267C27.7632 41.0524 27.3631 40.3594 26.6888 40.1787C26.0145 39.998 25.3214 40.3982 25.1408 41.0724C24.9601 41.7467 25.3602 42.4398 26.0345 42.6205Z" fill="black"/>
<path d="M30.5794 43.8382C31.2537 44.0189 31.9468 43.6188 32.1275 42.9445C32.3081 42.2702 31.908 41.5771 31.2337 41.3965C30.5594 41.2158 29.8664 41.6159 29.6857 42.2902C29.505 42.9645 29.9052 43.6576 30.5794 43.8382Z" fill="black"/>
<path d="M34.802 44.9701C35.4762 45.1507 36.1693 44.7506 36.35 44.0763C36.5307 43.402 36.1305 42.709 35.4562 42.5283C34.782 42.3476 34.0889 42.7478 33.9082 43.4221C33.7275 44.0963 34.1277 44.7894 34.802 44.9701Z" fill="black"/>
</svg>
