<svg width="32" height="32" viewBox="0 0 32 32" fill="none" xmlns="http://www.w3.org/2000/svg">
<path d="M15.9999 18.3333C10.5287 18.3333 5.76733 21.4134 4.20062 25.8358C3.37395 28.1693 5.14392 30.1849 7.28027 30.4885C9.1316 30.7517 11.9508 30.9999 15.9999 30.9999C20.0491 30.9999 22.8683 30.7517 24.7196 30.4885C26.8559 30.1849 28.6259 28.1693 27.7993 25.8358C26.2325 21.4134 21.4712 18.3333 15.9999 18.3333Z" fill="#CACACA"/>
<path fill-rule="evenodd" clip-rule="evenodd" d="M5.66602 11.3334C5.66602 5.62643 10.2925 1 15.9994 1C21.7064 1 26.3329 5.62643 26.3329 11.3334C26.3329 17.0404 21.7064 21.6668 15.9994 21.6668C10.2925 21.6668 5.66602 17.0404 5.66602 11.3334Z" fill="white"/>
<path fill-rule="evenodd" clip-rule="evenodd" d="M16 0.668182C15.9841 0.667162 15.9682 0.666684 15.9521 0.666755C10.4018 0.691555 5.84911 5.01512 5.33655 10.5377C5.31757 10.7421 5.38434 10.9452 5.52036 11.0967C5.65638 11.2483 5.84899 11.3343 6.05061 11.3334C10.5876 11.3131 14.4581 8.42035 16 4.34827C17.542 8.42035 21.4124 11.3131 25.9495 11.3334C26.1511 11.3343 26.3437 11.2483 26.4797 11.0967C26.6158 10.9452 26.6825 10.7421 26.6635 10.5377C26.151 5.01512 21.5982 0.691555 16.048 0.666755C16.0319 0.666684 16.016 0.667162 16 0.668182Z" fill="#CACACA"/>
<path fill-rule="evenodd" clip-rule="evenodd" d="M14.1694 15.7847C13.8664 15.3229 13.2464 15.1943 12.7846 15.4973C12.3229 15.8003 12.1942 16.4203 12.4972 16.882C13.3036 18.1106 14.6973 18.6667 16 18.6667C17.3026 18.6667 18.6964 18.1106 19.5027 16.882C19.8057 16.4203 19.677 15.8003 19.2153 15.4973C18.7536 15.1943 18.1336 15.3229 17.8306 15.7847C17.4702 16.3338 16.7806 16.6667 16 16.6667C15.2193 16.6667 14.5297 16.3338 14.1694 15.7847ZM12.6666 11C13.2189 11 13.6666 11.4477 13.6666 12V12.3333C13.6666 12.8856 13.2189 13.3333 12.6666 13.3333C12.1144 13.3333 11.6666 12.8856 11.6666 12.3333V12C11.6666 11.4477 12.1144 11 12.6666 11ZM18.334 12C18.334 11.4477 18.7816 11 19.334 11C19.8862 11 20.334 11.4477 20.334 12V12.3333C20.334 12.8856 19.8862 13.3333 19.334 13.3333C18.7816 13.3333 18.334 12.8856 18.334 12.3333V12Z" fill="#CACACA"/>
</svg>
