<svg width="24" height="48" viewBox="0 0 24 48" fill="none" xmlns="http://www.w3.org/2000/svg">
<g clip-path="url(#clip0_120_123)">
<path d="M21 3H3C1.9 3 1 3.9 1 5V17C1 18.1 1.9 19 3 19H8V21H16V19H21C22.1 19 23 18.1 23 17V5C23 3.9 22.1 3 21 3ZM21 17H3V5H21V17ZM19 8H8V10H19V8ZM19 12H8V14H19V12ZM7 8H5V10H7V8ZM7 12H5V14H7V12Z" fill="black"/>
<path d="M21 27H3C1.9 27 1 27.9 1 29V41C1 42.1 1.9 43 3 43H8V45H16V43H21C22.1 43 23 42.1 23 41V29C23 27.9 22.1 27 21 27ZM21 41H3V29H21V41ZM19 32H8V34H19V32ZM19 36H8V38H19V36ZM7 32H5V34H7V32ZM7 36H5V38H7V36Z" fill="white"/>
</g>
<defs>
<clipPath id="clip0_120_123">
<rect width="24" height="48" fill="white"/>
</clipPath>
</defs>
</svg>
