<svg width="24" height="48" viewBox="0 0 24 48" fill="none" xmlns="http://www.w3.org/2000/svg">
<g clip-path="url(#clip0_120_123)">
<path d="M9 13.75C6.66 13.75 2 14.92 2 17.25V19H16V17.25C16 14.92 11.34 13.75 9 13.75ZM4.34 17C5.18 16.42 7.21 15.75 9 15.75C10.79 15.75 12.82 16.42 13.66 17H4.34ZM9 12C10.93 12 12.5 10.43 12.5 8.5C12.5 6.57 10.93 5 9 5C7.07 5 5.5 6.57 5.5 8.5C5.5 10.43 7.07 12 9 12ZM9 7C9.83 7 10.5 7.67 10.5 8.5C10.5 9.33 9.83 10 9 10C8.17 10 7.5 9.33 7.5 8.5C7.5 7.67 8.17 7 9 7ZM16.04 13.81C17.2 14.65 18 15.77 18 17.25V19H22V17.25C22 15.23 18.5 14.08 16.04 13.81ZM15 12C16.93 12 18.5 10.43 18.5 8.5C18.5 6.57 16.93 5 15 5C14.46 5 13.96 5.13 13.5 5.35C14.13 6.24 14.5 7.33 14.5 8.5C14.5 9.67 14.13 10.76 13.5 11.65C13.96 11.87 14.46 12 15 12Z" fill="black"/>
<path d="M9 37.75C6.66 37.75 2 38.92 2 41.25V43H16V41.25C16 38.92 11.34 37.75 9 37.75ZM4.34 41C5.18 40.42 7.21 39.75 9 39.75C10.79 39.75 12.82 40.42 13.66 41H4.34ZM9 36C10.93 36 12.5 34.43 12.5 32.5C12.5 30.57 10.93 29 9 29C7.07 29 5.5 30.57 5.5 32.5C5.5 34.43 7.07 36 9 36ZM9 31C9.83 31 10.5 31.67 10.5 32.5C10.5 33.33 9.83 34 9 34C8.17 34 7.5 33.33 7.5 32.5C7.5 31.67 8.17 31 9 31ZM16.04 37.81C17.2 38.65 18 39.77 18 41.25V43H22V41.25C22 39.23 18.5 38.08 16.04 37.81ZM15 36C16.93 36 18.5 34.43 18.5 32.5C18.5 30.57 16.93 29 15 29C14.46 29 13.96 29.13 13.5 29.35C14.13 30.24 14.5 31.33 14.5 32.5C14.5 33.67 14.13 34.76 13.5 35.65C13.96 35.87 14.46 36 15 36Z" fill="white"/>
</g>
<defs>
<clipPath id="clip0_120_123">
<rect width="24" height="48" fill="white"/>
</clipPath>
</defs>
</svg>
