<svg width="24" height="48" viewBox="0 0 24 48" fill="none" xmlns="http://www.w3.org/2000/svg">
<g clip-path="url(#clip0_120_123)">
<path d="M7 8.5H2V6.5H7V8.5ZM7 11.5H2V13.5H7V11.5ZM20.59 18.5L16.76 14.67C15.96 15.19 15.02 15.5 14 15.5C11.24 15.5 9 13.26 9 10.5C9 7.74 11.24 5.5 14 5.5C16.76 5.5 19 7.74 19 10.5C19 11.52 18.69 12.46 18.17 13.25L22 17.09L20.59 18.5ZM17 10.5C17 8.85 15.65 7.5 14 7.5C12.35 7.5 11 8.85 11 10.5C11 12.15 12.35 13.5 14 13.5C15.65 13.5 17 12.15 17 10.5ZM2 18.5H12V16.5H2V18.5Z" fill="black"/>
<path d="M7 32.5H2V30.5H7V32.5ZM7 35.5H2V37.5H7V35.5ZM20.59 42.5L16.76 38.67C15.96 39.19 15.02 39.5 14 39.5C11.24 39.5 9 37.26 9 34.5C9 31.74 11.24 29.5 14 29.5C16.76 29.5 19 31.74 19 34.5C19 35.52 18.69 36.46 18.17 37.25L22 41.09L20.59 42.5ZM17 34.5C17 32.85 15.65 31.5 14 31.5C12.35 31.5 11 32.85 11 34.5C11 36.15 12.35 37.5 14 37.5C15.65 37.5 17 36.15 17 34.5ZM2 42.5H12V40.5H2V42.5Z" fill="white"/>
</g>
<defs>
<clipPath id="clip0_120_123">
<rect width="24" height="48" fill="white"/>
</clipPath>
</defs>
</svg>
