<svg width="24" height="48" viewBox="0 0 24 48" fill="none" xmlns="http://www.w3.org/2000/svg">
<g clip-path="url(#clip0_120_123)">
<path d="M19.5 3H3.5C2.4 3 1.51 3.9 1.51 5L1.5 17C1.5 18.1 2.4 19 3.5 19H11.5V17H3.5V7L11.5 12L19.5 7V12H21.5V5C21.5 3.9 20.6 3 19.5 3ZM11.5 10L3.5 5H19.5L11.5 10ZM16.84 21L13.3 17.46L14.71 16.05L16.83 18.17L21.07 13.93L22.5 15.34L16.84 21Z" fill="black"/>
<path d="M19.5 27H3.5C2.4 27 1.51 27.9 1.51 29L1.5 41C1.5 42.1 2.4 43 3.5 43H11.5V41H3.5V31L11.5 36L19.5 31V36H21.5V29C21.5 27.9 20.6 27 19.5 27ZM11.5 34L3.5 29H19.5L11.5 34ZM16.84 45L13.3 41.46L14.71 40.05L16.83 42.17L21.07 37.93L22.5 39.34L16.84 45Z" fill="white"/>
</g>
<defs>
<clipPath id="clip0_120_123">
<rect width="24" height="48" fill="white"/>
</clipPath>
</defs>
</svg>
