<svg width="24" height="48" viewBox="0 0 24 48" fill="none" xmlns="http://www.w3.org/2000/svg">
<g clip-path="url(#clip0_120_123)">
<path d="M10.25 13C10.25 13.69 9.69 14.25 9 14.25C8.31 14.25 7.75 13.69 7.75 13C7.75 12.31 8.31 11.75 9 11.75C9.69 11.75 10.25 12.31 10.25 13ZM15 11.75C14.31 11.75 13.75 12.31 13.75 13C13.75 13.69 14.31 14.25 15 14.25C15.69 14.25 16.25 13.69 16.25 13C16.25 12.31 15.69 11.75 15 11.75ZM22 12C22 17.52 17.52 22 12 22C6.48 22 2 17.52 2 12C2 6.48 6.48 2 12 2C17.52 2 22 6.48 22 12ZM10.66 4.12C12.06 6.44 14.6 8 17.5 8C17.96 8 18.41 7.95 18.84 7.88C17.44 5.56 14.9 4 12 4C11.54 4 11.09 4.05 10.66 4.12ZM4.42 9.47C6.13 8.5 7.45 6.92 8.08 5.03C6.37 6 5.05 7.58 4.42 9.47ZM20 12C20 11.22 19.88 10.47 19.67 9.76C18.97 9.91 18.25 10 17.5 10C14.37 10 11.58 8.56 9.74 6.31C8.69 8.87 6.6 10.88 4 11.86C4.01 11.9 4 11.95 4 12C4 16.41 7.59 20 12 20C16.41 20 20 16.41 20 12Z" fill="black"/>
<path d="M10.25 37C10.25 37.69 9.69 38.25 9 38.25C8.31 38.25 7.75 37.69 7.75 37C7.75 36.31 8.31 35.75 9 35.75C9.69 35.75 10.25 36.31 10.25 37ZM15 35.75C14.31 35.75 13.75 36.31 13.75 37C13.75 37.69 14.31 38.25 15 38.25C15.69 38.25 16.25 37.69 16.25 37C16.25 36.31 15.69 35.75 15 35.75ZM22 36C22 41.52 17.52 46 12 46C6.48 46 2 41.52 2 36C2 30.48 6.48 26 12 26C17.52 26 22 30.48 22 36ZM10.66 28.12C12.06 30.44 14.6 32 17.5 32C17.96 32 18.41 31.95 18.84 31.88C17.44 29.56 14.9 28 12 28C11.54 28 11.09 28.05 10.66 28.12ZM4.42 33.47C6.13 32.5 7.45 30.92 8.08 29.03C6.37 30 5.05 31.58 4.42 33.47ZM20 36C20 35.22 19.88 34.47 19.67 33.76C18.97 33.91 18.25 34 17.5 34C14.37 34 11.58 32.56 9.74 30.31C8.69 32.87 6.6 34.88 4 35.86C4.01 35.9 4 35.95 4 36C4 40.41 7.59 44 12 44C16.41 44 20 40.41 20 36Z" fill="white"/>
</g>
<defs>
<clipPath id="clip0_120_123">
<rect width="24" height="48" fill="white"/>
</clipPath>
</defs>
</svg>
