<svg width="24" height="48" viewBox="0 0 24 48" fill="none" xmlns="http://www.w3.org/2000/svg">
<g clip-path="url(#clip0_120_123)">
<path d="M2.5 17H4.5V17.5H3.5V18.5H4.5V19H2.5V20H5.5V16H2.5V17ZM3.5 8H4.5V4H2.5V5H3.5V8ZM2.5 11H4.3L2.5 13.1V14H5.5V13H3.7L5.5 10.9V10H2.5V11ZM7.5 5V7H21.5V5H7.5ZM7.5 19H21.5V17H7.5V19ZM7.5 13H21.5V11H7.5V13Z" fill="black"/>
<path d="M2.5 41H4.5V41.5H3.5V42.5H4.5V43H2.5V44H5.5V40H2.5V41ZM3.5 32H4.5V28H2.5V29H3.5V32ZM2.5 35H4.3L2.5 37.1V38H5.5V37H3.7L5.5 34.9V34H2.5V35ZM7.5 29V31H21.5V29H7.5ZM7.5 43H21.5V41H7.5V43ZM7.5 37H21.5V35H7.5V37Z" fill="white"/>
</g>
<defs>
<clipPath id="clip0_120_123">
<rect width="24" height="48" fill="white"/>
</clipPath>
</defs>
</svg>
