<svg width="24" height="48" viewBox="0 0 24 48" fill="none" xmlns="http://www.w3.org/2000/svg">
<g clip-path="url(#clip0_120_123)">
<path d="M3.51 6.03L11.02 9.25L3.5 8.25L3.51 6.03ZM11.01 14.75L3.5 17.97V15.75L11.01 14.75ZM1.51 3L1.5 10L16.5 12L1.5 14L1.51 21L22.5 12L1.51 3Z" fill="black"/>
<path d="M3.51 30.03L11.02 33.25L3.5 32.25L3.51 30.03ZM11.01 38.75L3.5 41.97V39.75L11.01 38.75ZM1.51 27L1.5 34L16.5 36L1.5 38L1.51 45L22.5 36L1.51 27Z" fill="white"/>
</g>
<defs>
<clipPath id="clip0_120_123">
<rect width="24" height="48" fill="white"/>
</clipPath>
</defs>
</svg>
